<svg width="26" height="27" viewBox="0 0 26 27" fill="none" xmlns="http://www.w3.org/2000/svg">
<ellipse cx="12.7056" cy="13.3154" rx="12.7026" ry="12.7026" fill="#181717"/>
<path d="M1.79004 19.8159C3.33635 22.4064 5.77896 24.4 8.68995 25.3691C9.32549 25.4853 9.55709 25.0931 9.55709 24.7562C9.55709 24.6167 9.55475 24.3703 9.55161 24.0405C9.54798 23.6586 9.54328 23.1648 9.53993 22.5961C6.00664 23.3634 5.26115 20.893 5.26115 20.893C4.68331 19.4262 3.85048 19.0355 3.85048 19.0355C2.69715 18.2471 3.93782 18.2627 3.93782 18.2627C5.2128 18.3532 5.88343 19.572 5.88343 19.572C7.01649 21.513 8.85683 20.9523 9.58048 20.6279C9.69589 19.8068 10.0234 19.2469 10.3868 18.9295C7.56625 18.609 4.60065 17.5188 4.60065 12.6513C4.60065 11.2648 5.09583 10.1309 5.90838 9.24274C5.77738 8.92146 5.34147 7.6301 6.03237 5.881C6.03237 5.881 7.09915 5.53944 9.5259 7.18327C10.5389 6.90176 11.6259 6.76062 12.7059 6.75594C13.7844 6.76062 14.8715 6.90176 15.886 7.18327C18.3112 5.53944 19.3756 5.881 19.3756 5.881C20.0689 7.6301 19.6329 8.92146 19.5019 9.24274C20.3161 10.1309 20.8081 11.2648 20.8081 12.6513C20.8081 17.5313 17.8378 18.6051 15.0079 18.9193C15.4641 19.3116 15.8704 20.0867 15.8704 21.272C15.8704 22.4073 15.8634 23.3962 15.8588 24.0513C15.8565 24.3757 15.8548 24.6182 15.8548 24.7562C15.8548 25.0962 16.0833 25.4915 16.7282 25.3675C19.0471 24.5935 21.0686 23.1696 22.5758 21.3118C20.2469 24.1829 16.6905 26.0179 12.7056 26.0179C8.06568 26.0179 4.00684 23.5302 1.79004 19.8159Z" fill="white"/>
</svg>
