<svg width="26" height="27" viewBox="0 0 26 27" fill="none" xmlns="http://www.w3.org/2000/svg">
<ellipse cx="13.0312" cy="13.4221" rx="12.7026" ry="12.7026" fill="#0077B5"/>
<path fill-rule="evenodd" clip-rule="evenodd" d="M9.71228 7.2511C9.71228 8.0419 9.11016 8.68188 8.16853 8.68188C7.2636 8.68188 6.66147 8.0419 6.68011 7.2511C6.66147 6.42188 7.26358 5.80054 8.18657 5.80054C9.11014 5.80054 9.69423 6.42188 9.71228 7.2511ZM6.75581 19.0234V9.81216H9.61852V19.0228H6.75581V19.0234Z" fill="white"/>
<path fill-rule="evenodd" clip-rule="evenodd" d="M11.9131 12.7518C11.9131 11.6029 11.8753 10.6234 11.8374 9.81341H14.3239L14.4561 11.0753H14.5126C14.8894 10.4912 15.831 9.60669 17.3567 9.60669C19.2399 9.60669 20.6527 10.85 20.6527 13.5613V19.0246H17.7899V13.92C17.7899 12.7326 17.3759 11.9232 16.3399 11.9232C15.5486 11.9232 15.0781 12.4694 14.89 12.9964C14.8143 13.1851 14.777 13.4483 14.777 13.7127V19.0246H11.9143V12.7518H11.9131Z" fill="white"/>
</svg>
