<svg width="26" height="27" viewBox="0 0 26 27" fill="none" xmlns="http://www.w3.org/2000/svg">
<ellipse cx="13.1934" cy="13.4228" rx="12.7026" ry="12.7026" fill="#1DA1F2"/>
<path fill-rule="evenodd" clip-rule="evenodd" d="M20.8149 8.53783C20.2545 8.78678 19.6515 8.95444 19.0189 9.03015C19.6647 8.643 20.1605 8.03026 20.3937 7.30016C19.7902 7.65886 19.12 7.91849 18.4082 8.05922C17.8376 7.45157 17.0242 7.07153 16.1254 7.07153C14.3985 7.07153 12.9983 8.47178 12.9983 10.1987C12.9983 10.4436 13.0262 10.6824 13.0796 10.9115C10.4803 10.7815 8.17615 9.53619 6.63365 7.64413C6.36437 8.10597 6.21042 8.643 6.21042 9.21611C6.21042 10.3008 6.76168 11.258 7.60152 11.819C7.08837 11.8027 6.60672 11.662 6.18451 11.4277V11.4669C6.18451 12.9824 7.26315 14.246 8.69286 14.5341C8.43069 14.6052 8.1543 14.6438 7.86928 14.6438C7.66757 14.6438 7.47146 14.624 7.28042 14.5874C7.67824 15.8297 8.8336 16.734 10.2018 16.7594C9.13183 17.5978 7.78341 18.0982 6.31813 18.0982C6.06511 18.0982 5.81616 18.0835 5.57178 18.054C6.95576 18.9411 8.59937 19.4593 10.3654 19.4593C16.1173 19.4593 19.2628 14.6941 19.2628 10.562C19.2628 10.4263 19.2602 10.2912 19.2536 10.1576C19.8654 9.71554 20.3958 9.16479 20.8149 8.53783Z" fill="white"/>
</svg>
