<svg width="26" height="27" viewBox="0 0 26 27" fill="none" xmlns="http://www.w3.org/2000/svg">
<ellipse cx="13.106" cy="13.4228" rx="12.7026" ry="12.7026" fill="black"/>
<path d="M11.9805 13.8232C12.2479 14.1807 12.589 14.4765 12.9808 14.6905C13.3725 14.9046 13.8057 15.0318 14.251 15.0637C14.6963 15.0956 15.1432 15.0314 15.5615 14.8754C15.9797 14.7193 16.3595 14.4752 16.6751 14.1595L18.543 12.2916C19.1101 11.7044 19.4239 10.918 19.4168 10.1017C19.4097 9.28548 19.0823 8.50466 18.5051 7.92745C17.9279 7.35024 17.1471 7.02284 16.3308 7.01574C15.5146 7.00865 14.7282 7.32244 14.141 7.88953L13.0701 8.95424" stroke="white" stroke-width="2" stroke-linecap="round" stroke-linejoin="round"/>
<path d="M14.4711 12.578C14.2038 12.2206 13.8626 11.9248 13.4708 11.7107C13.0791 11.4967 12.6459 11.3694 12.2006 11.3375C11.7553 11.3057 11.3084 11.3699 10.8902 11.5259C10.4719 11.6819 10.0921 11.9261 9.77648 12.2418L7.90857 14.1097C7.34148 14.6969 7.02769 15.4833 7.03479 16.2995C7.04188 17.1158 7.36929 17.8966 7.9465 18.4738C8.5237 19.051 9.30453 19.3784 10.1208 19.3855C10.9371 19.3926 11.7234 19.0788 12.3106 18.5118L13.3753 17.447" stroke="white" stroke-width="2" stroke-linecap="round" stroke-linejoin="round"/>
</svg>
