<svg width="189" height="190" viewBox="0 0 189 190" fill="none" xmlns="http://www.w3.org/2000/svg">
<g filter="url(#filter0_d)">
<path d="M47.9082 50.8183C47.9082 46.6879 51.2565 43.3396 55.3869 43.3396H96.3687C100.499 43.3396 103.847 46.6879 103.847 50.8183V91.8001C103.847 95.9305 100.499 99.2788 96.3687 99.2788H55.3869C51.2565 99.2788 47.9082 95.9305 47.9082 91.8001V50.8183Z" fill="#F9C730"/>
</g>
<path d="M91.7452 71.2346H90.7549C90.5633 68.0082 89.2855 64.8776 87.1771 62.4818C84.9091 59.8623 81.6507 58.1054 78.2326 57.6581C76.5396 57.4345 74.7826 57.4665 73.0895 57.8179C71.3965 58.1693 69.7992 58.872 68.3617 59.7984C65.4867 61.6512 63.2825 64.5582 62.2922 67.8166C61.3339 71.1069 61.5575 74.6847 62.9631 77.7833C64.3367 80.8819 66.8923 83.4375 69.927 84.875C72.9937 86.3125 76.5396 86.6 79.766 85.7056C82.9924 84.8111 85.8674 82.7028 87.7202 79.9555C87.848 79.7639 87.7841 79.5402 87.6244 79.4125C87.4327 79.2847 87.2091 79.3486 87.0813 79.5083C85.2924 82.0639 82.5452 83.9806 79.5104 84.7472C76.4757 85.5458 73.1854 85.1945 70.4062 83.8208C67.627 82.4792 65.327 80.1153 64.145 77.2402C62.9311 74.3972 62.7714 71.1388 63.6978 68.1999C64.6242 65.261 66.6367 62.7374 69.2242 61.1401C70.502 60.3415 71.9395 59.7665 73.4409 59.479C74.9423 59.1915 76.4757 59.1595 77.9771 59.4151C80.9799 59.8623 83.7591 61.4276 85.6757 63.7596C87.4646 65.8679 88.4869 68.5193 88.6466 71.2346H87.6563C87.4327 71.2346 87.273 71.4902 87.4007 71.7138L89.4452 75.0999C89.573 75.2916 89.8605 75.2916 89.9563 75.0999L92.0008 71.7138C92.1286 71.4902 92.0008 71.2346 91.7452 71.2346Z" fill="url(#paint0_linear)"/>
<path d="M76.0606 62.1941C70.63 62.1941 66.2217 66.6025 66.2217 72.033C66.2217 77.4636 70.63 81.872 76.0606 81.872C81.4912 81.872 85.8996 77.4636 85.8996 72.033C85.9315 66.6025 81.5232 62.1941 76.0606 62.1941ZM79.7662 73.0872H76.0606C75.4537 73.0872 74.9745 72.6081 74.9745 72.0011V66.858C74.9745 66.2511 75.4537 65.7719 76.0606 65.7719C76.6676 65.7719 77.1468 66.2511 77.1468 66.858V70.9469H79.7662C80.3732 70.9469 80.8523 71.4261 80.8523 72.033C80.8523 72.64 80.3732 73.0872 79.7662 73.0872Z" fill="url(#paint1_linear)"/>
<defs>
<filter id="filter0_d" x="0.661402" y="0.817478" width="188.23" height="188.23" filterUnits="userSpaceOnUse" color-interpolation-filters="sRGB">
<feFlood flood-opacity="0" result="BackgroundImageFix"/>
<feColorMatrix in="SourceAlpha" type="matrix" values="0 0 0 0 0 0 0 0 0 0 0 0 0 0 0 0 0 0 127 0"/>
<feOffset dx="18.8987" dy="23.6234"/>
<feGaussianBlur stdDeviation="33.0728"/>
<feColorMatrix type="matrix" values="0 0 0 0 0.892101 0 0 0 0 0.943117 0 0 0 0 0.995833 0 0 0 0.7 0"/>
<feBlend mode="normal" in2="BackgroundImageFix" result="effect1_dropShadow"/>
<feBlend mode="normal" in="SourceGraphic" in2="effect1_dropShadow" result="shape"/>
</filter>
<linearGradient id="paint0_linear" x1="76.8802" y1="57.5164" x2="76.8802" y2="86.215" gradientUnits="userSpaceOnUse">
<stop stop-color="white"/>
<stop offset="1" stop-color="white" stop-opacity="0.7"/>
</linearGradient>
<linearGradient id="paint1_linear" x1="76.0607" y1="62.1941" x2="76.0607" y2="81.872" gradientUnits="userSpaceOnUse">
<stop stop-color="white"/>
<stop offset="1" stop-color="white" stop-opacity="0.7"/>
</linearGradient>
</defs>
</svg>
