<svg width="189" height="188" viewBox="0 0 189 188" fill="none" xmlns="http://www.w3.org/2000/svg">
<g filter="url(#filter0_d)">
<path d="M47.9155 50.1118C47.9155 45.9814 51.2639 42.6331 55.3943 42.6331H96.376C100.506 42.6331 103.855 45.9814 103.855 50.1118V90.5069C103.855 94.6372 100.506 97.9856 96.376 97.9856H55.3943C51.2639 97.9856 47.9155 94.6372 47.9155 90.5069V50.1118Z" fill="#FF98A4"/>
</g>
<path d="M69.2736 78.0491C69.4683 77.8681 69.5876 77.6207 69.6081 77.3557C69.644 76.923 69.4156 76.5113 69.0295 76.3126C68.6435 76.1139 68.1757 76.1674 67.8444 76.4481L65.5909 78.1908C65.2722 78.4773 65.1545 78.9259 65.2913 79.3321C65.4282 79.7382 65.7934 80.024 66.2205 80.0593C66.5041 80.0842 66.7859 79.9941 67.0024 79.8091L68.6605 78.5275L69.2736 78.0491Z" fill="url(#paint0_linear)"/>
<path d="M65.913 75.5266C65.8223 75.2644 65.5855 75.0802 65.309 75.0568C65.2895 75.0554 65.2699 75.0547 65.2503 75.0547C65.085 75.0543 64.9249 75.113 64.7989 75.2203L63.0094 76.6039C62.8066 76.793 62.7343 77.0839 62.825 77.346C62.9157 77.6081 63.1522 77.7921 63.4287 77.8155C63.6139 77.834 63.7985 77.7751 63.9388 77.6527L65.7283 76.2691C65.9313 76.0799 66.0037 75.7889 65.913 75.5266Z" fill="url(#paint1_linear)"/>
<path d="M55.9341 56.4678V71.7775L57.3702 72.598L63.9226 62.5763L55.9341 56.4678Z" fill="url(#paint2_linear)"/>
<path d="M71.7914 79.076C71.7011 78.8132 71.464 78.6285 71.1872 78.6051C71.1674 78.6032 71.1476 78.6022 71.1278 78.6023C70.9625 78.6021 70.8027 78.6612 70.6771 78.7686L70.1718 79.1629C70.1664 79.1676 70.1627 79.1734 70.1573 79.1781L69.6638 79.5594L67.9911 80.8649C67.8604 80.9832 67.7805 81.1474 67.7683 81.3233C67.7521 81.5084 67.811 81.6922 67.9317 81.8334C68.0516 81.9753 68.223 82.0636 68.4081 82.079C68.5932 82.0943 68.7768 82.0354 68.9184 81.9152L69.8734 81.1699L69.875 81.1682L69.9307 81.1253L71.6044 79.8189C71.8084 79.6302 71.8817 79.3388 71.7914 79.076Z" fill="url(#paint3_linear)"/>
<path d="M65.062 63.4478L58.6145 73.3088L60.002 74.1016L66.4152 64.4824L65.062 63.4478Z" fill="url(#paint4_linear)"/>
<path d="M88.0151 62.5765L94.5675 72.598L96.0036 71.7775V56.4678L88.0151 62.5765Z" fill="url(#paint5_linear)"/>
<path d="M82.5963 67.1587C82.4412 67.2021 82.2758 67.1908 82.1281 67.1265L79.2926 65.919C76.9385 65.4836 76.0741 66.028 75.8645 66.2076C75.837 66.231 75.8117 66.257 75.7891 66.2852C75.7598 66.343 75.7192 66.3944 75.6696 66.4362C75.2075 66.8254 74.7038 67.1626 74.168 67.4417C73.916 67.5731 73.7797 67.8541 73.8326 68.1334C73.8747 68.4001 74.0892 68.6063 74.3573 68.6379C75.5067 68.7885 76.6748 68.5829 77.7037 68.0488C77.9345 67.9169 78.2193 67.9236 78.4436 68.0663L80.5486 69.405C80.5833 69.4154 80.617 69.4285 80.6496 69.4442L87.7259 74.0022C87.8105 74.0656 87.891 74.1342 87.9669 74.2078L89.3583 72.8168L85.1251 66.4691L82.5963 67.1587Z" fill="url(#paint6_linear)"/>
<path d="M85.5215 64.4831L91.9354 74.1016L93.3228 73.3088L86.8754 63.4478L85.5215 64.4831Z" fill="url(#paint7_linear)"/>
<path d="M72.5644 80.8971L70.8071 82.2557L70.7745 82.2812C70.5719 82.4704 70.4999 82.7612 70.5907 83.0231C70.6815 83.2849 70.918 83.4689 71.1942 83.4922C71.3795 83.5117 71.5646 83.4527 71.7043 83.3294L73.4938 81.9458C73.7725 81.6867 73.7935 81.2525 73.5411 80.9677C73.2887 80.6829 72.8552 80.6516 72.5644 80.8971Z" fill="url(#paint8_linear)"/>
<path d="M87.282 75.5612C87.196 75.4178 87.0802 75.2946 86.9425 75.1999L79.9669 70.7074C79.9222 70.6925 79.8791 70.6731 79.8382 70.6496L78.0138 69.489C76.7969 70.0423 75.4474 70.2367 74.1238 70.0494C73.2579 69.917 72.5734 69.246 72.4238 68.3828C72.2949 67.6717 72.5484 66.945 73.0916 66.4683H66.8111L61.8074 73.9732L62.9217 74.8636L63.899 74.1084C64.4442 73.6595 65.1767 73.5103 65.8541 73.7102C66.5315 73.9101 67.0656 74.433 67.2798 75.1061C68.0382 74.6577 68.9773 74.6443 69.7482 75.0709C70.5191 75.4975 71.0065 76.3003 71.0295 77.1811C71.1212 77.1741 71.2133 77.1733 71.3052 77.1788C72.4158 77.2662 73.2674 78.2014 73.2509 79.3152C73.9826 79.3934 74.6214 79.8458 74.938 80.51C75.2547 81.1743 75.204 81.9554 74.8039 82.5731L77.1607 84.1482C77.6261 84.4556 78.2493 84.3563 78.5961 83.9196C78.943 83.4829 78.8987 82.8535 78.4939 82.4698C78.4367 82.4108 78.3759 82.3552 78.312 82.3035L76.9853 81.3622C76.7768 81.2142 76.6632 80.9662 76.6872 80.7117C76.7111 80.4571 76.8691 80.2347 77.1016 80.1282C77.334 80.0217 77.6056 80.0473 77.8141 80.1954L79.1038 81.1108H79.104L79.1045 81.1112L80.3701 82.0095C80.8628 82.326 81.5185 82.1873 81.841 81.6985C82.1639 81.1856 82.0281 80.5096 81.5321 80.1612L81.531 80.16L78.0963 77.7903C77.7718 77.5654 77.6906 77.1203 77.915 76.7953C78.1393 76.4704 78.5845 76.3884 78.9097 76.6123L83.6123 79.8573C83.8468 80.012 84.1332 80.0668 84.4082 80.0096C84.8327 79.9254 85.1645 79.5935 85.2484 79.169C85.3323 78.7444 85.1517 78.3112 84.7911 78.0719L84.7888 78.0696L80.2415 74.9261C80.0305 74.7811 79.9131 74.5344 79.9337 74.2793C79.9542 74.0242 80.1095 73.7994 80.341 73.69C80.5724 73.5806 80.8447 73.6033 81.0549 73.7494L85.7541 76.9972L85.7596 77.0008C86.2535 77.3144 86.9073 77.1781 87.2347 76.6933C87.4563 76.3629 87.479 75.9378 87.2941 75.5857C87.2897 75.5773 87.2856 75.5695 87.282 75.5612Z" fill="url(#paint9_linear)"/>
<defs>
<filter id="filter0_d" x="0.668726" y="0.110935" width="188.23" height="187.644" filterUnits="userSpaceOnUse" color-interpolation-filters="sRGB">
<feFlood flood-opacity="0" result="BackgroundImageFix"/>
<feColorMatrix in="SourceAlpha" type="matrix" values="0 0 0 0 0 0 0 0 0 0 0 0 0 0 0 0 0 0 127 0"/>
<feOffset dx="18.8987" dy="23.6234"/>
<feGaussianBlur stdDeviation="33.0728"/>
<feColorMatrix type="matrix" values="0 0 0 0 0.491667 0 0 0 0 0.465035 0 0 0 0 0.468246 0 0 0 0.21 0"/>
<feBlend mode="normal" in2="BackgroundImageFix" result="effect1_dropShadow"/>
<feBlend mode="normal" in="SourceGraphic" in2="effect1_dropShadow" result="shape"/>
</filter>
<linearGradient id="paint0_linear" x1="67.4234" y1="76.1936" x2="67.4234" y2="80.0634" gradientUnits="userSpaceOnUse">
<stop stop-color="white"/>
<stop offset="1" stop-color="white" stop-opacity="0.7"/>
</linearGradient>
<linearGradient id="paint1_linear" x1="64.369" y1="75.0547" x2="64.369" y2="77.8189" gradientUnits="userSpaceOnUse">
<stop stop-color="white"/>
<stop offset="1" stop-color="white" stop-opacity="0.7"/>
</linearGradient>
<linearGradient id="paint2_linear" x1="59.9284" y1="56.4678" x2="59.9284" y2="72.598" gradientUnits="userSpaceOnUse">
<stop stop-color="white"/>
<stop offset="1" stop-color="white" stop-opacity="0.7"/>
</linearGradient>
<linearGradient id="paint3_linear" x1="69.7976" y1="78.6023" x2="69.7976" y2="82.0813" gradientUnits="userSpaceOnUse">
<stop stop-color="white"/>
<stop offset="1" stop-color="white" stop-opacity="0.7"/>
</linearGradient>
<linearGradient id="paint4_linear" x1="62.5149" y1="63.4478" x2="62.5149" y2="74.1016" gradientUnits="userSpaceOnUse">
<stop stop-color="white"/>
<stop offset="1" stop-color="white" stop-opacity="0.7"/>
</linearGradient>
<linearGradient id="paint5_linear" x1="92.0094" y1="56.4678" x2="92.0094" y2="72.598" gradientUnits="userSpaceOnUse">
<stop stop-color="white"/>
<stop offset="1" stop-color="white" stop-opacity="0.7"/>
</linearGradient>
<linearGradient id="paint6_linear" x1="81.5898" y1="65.7542" x2="81.5898" y2="74.2078" gradientUnits="userSpaceOnUse">
<stop stop-color="white"/>
<stop offset="1" stop-color="white" stop-opacity="0.7"/>
</linearGradient>
<linearGradient id="paint7_linear" x1="89.4222" y1="63.4478" x2="89.4222" y2="74.1016" gradientUnits="userSpaceOnUse">
<stop stop-color="white"/>
<stop offset="1" stop-color="white" stop-opacity="0.7"/>
</linearGradient>
<linearGradient id="paint8_linear" x1="72.1347" y1="80.7317" x2="72.1347" y2="83.4959" gradientUnits="userSpaceOnUse">
<stop stop-color="white"/>
<stop offset="1" stop-color="white" stop-opacity="0.7"/>
</linearGradient>
<linearGradient id="paint9_linear" x1="74.6129" y1="66.4683" x2="74.6129" y2="84.3264" gradientUnits="userSpaceOnUse">
<stop stop-color="white"/>
<stop offset="1" stop-color="white" stop-opacity="0.7"/>
</linearGradient>
</defs>
</svg>
