<?xml version="1.0" encoding="iso-8859-1"?>
<!-- Generator: Adobe Illustrator 19.0.0, SVG Export Plug-In . SVG Version: 6.00 Build 0)  -->
<svg version="1.1" id="Layer_1" xmlns="http://www.w3.org/2000/svg" xmlns:xlink="http://www.w3.org/1999/xlink" x="0px" y="0px"
	 viewBox="0 0 495 495" style="enable-background:new 0 0 495 495;" xml:space="preserve">
<g>
	<path style="fill:#FF5023;" d="M247.5,340.263v-40.5h-20v-64.737h20v-40.5h-20v-64.737h20V0c-37.646,0-69.36,25.883-78.283,60.788
		h-46.543v20c0,19.918-16.204,36.122-36.122,36.122h-20V495H227.5V340.263H247.5z M187.025,405h-40v-64.737h40V405z
		 M187.025,299.763h-40v-64.737h40V299.763z"/>
	<path style="fill:#FF0C38;" d="M408.448,116.91c-19.918,0-36.122-16.204-36.122-36.122v-20h-46.543
		C316.86,25.883,285.146,0,247.5,0v129.789h20v64.737h-20v40.5h20v64.737h-20v40.5h20V495h160.948V116.91H408.448z M347.975,405h-40
		v-64.737h40V405z M347.975,299.763h-40v-64.737h40V299.763z"/>
	<rect x="227.5" y="340.263" style="fill:#FFA733;" width="40" height="154.737"/>
	<rect x="227.5" y="235.026" style="fill:#FF9811;" width="40" height="64.737"/>
	<rect x="307.975" y="340.263" style="fill:#FF9811;" width="40" height="64.737"/>
	<rect x="307.975" y="235.026" style="fill:#FF9811;" width="40" height="64.737"/>
	<rect x="147.025" y="340.263" style="fill:#FFA733;" width="40" height="64.737"/>
	<rect x="147.025" y="235.026" style="fill:#FFA733;" width="40" height="64.737"/>
	<rect x="227.5" y="129.789" style="fill:#FF9811;" width="40" height="64.737"/>
</g>
<g>
</g>
<g>
</g>
<g>
</g>
<g>
</g>
<g>
</g>
<g>
</g>
<g>
</g>
<g>
</g>
<g>
</g>
<g>
</g>
<g>
</g>
<g>
</g>
<g>
</g>
<g>
</g>
<g>
</g>
</svg>
