<svg width="23" height="25" viewBox="0 0 23 25" fill="none" xmlns="http://www.w3.org/2000/svg">
<g clip-path="url(#clip0)">
<path d="M8.31792 24.8108V20.355H14.6828V24.8108H19.4795V0.810791H3.52051V24.8108H8.31792ZM14.6828 3.01555H17.3673V5.81679H14.6828V3.01555ZM14.6828 7.08781H17.3673V9.8898H14.6828V7.08781ZM14.6828 11.1608H17.3673V13.9613H14.6828V11.1608ZM14.6828 15.2323H17.3673V18.0351H14.6828V15.2323ZM10.1584 3.01555H12.8437V5.81679H10.1584V3.01555ZM10.1584 7.08781H12.8437V9.8898H10.1584V7.08781ZM10.1584 11.1608H12.8437V13.9613H10.1584V11.1608ZM10.1584 15.2323H12.8437V18.0351H10.1584V15.2323ZM5.63413 3.01555H8.31865V5.81679H5.63413V3.01555ZM5.63413 7.08781H8.31865V9.8898H5.63413V7.08781ZM5.63413 11.1608H8.31865V13.9613H5.63413V11.1608ZM5.63413 15.2323H8.31865V18.0351H5.63413V15.2323Z" fill="#BDBDBD"/>
</g>
<defs>
<clipPath id="clip0">
<rect width="23" height="24" fill="white" transform="translate(0 0.810791)"/>
</clipPath>
</defs>
</svg>
