<svg width="24" height="25" viewBox="0 0 24 25" fill="none" xmlns="http://www.w3.org/2000/svg">
<g clip-path="url(#clip0)">
<path d="M20.1849 17.1672C20.1859 15.2525 18.886 13.6058 17.0846 13.2407C15.2833 12.8757 13.4871 13.8947 12.8012 15.6707C12.1154 17.4466 12.7329 19.4805 14.2734 20.5206L13.5303 22.8469L15.3473 23.479L16.0896 21.1539C16.177 21.1602 16.2647 21.1646 16.3537 21.1646C16.4425 21.1646 16.5304 21.1602 16.6178 21.1539L17.3599 23.479L19.1771 22.8469L18.434 20.5206C19.5247 19.785 20.1838 18.5225 20.1849 17.1672ZM16.3542 19.1656C15.2964 19.1656 14.4391 18.2709 14.4391 17.1672C14.4391 16.0632 15.2964 15.1686 16.3542 15.1686C17.4122 15.1686 18.2695 16.0632 18.2695 17.1672C18.2683 18.2704 17.4116 19.1645 16.3542 19.1656Z" fill="#BDBDBD"/>
<path d="M22.1001 2.17773H1.03179C0.502907 2.17773 0.0742188 2.62524 0.0742188 3.17694V18.1663C0.0742188 18.7182 0.502907 19.1655 1.03179 19.1655H11.9671C11.0896 17.0715 11.6856 14.623 13.4148 13.2199C15.1438 11.8168 17.5648 11.8168 19.2938 13.2199C21.0227 14.623 21.619 17.0715 20.7414 19.1655H22.1001C22.6292 19.1655 23.0579 18.7182 23.0579 18.1663V3.17694C23.0579 2.62524 22.6292 2.17773 22.1001 2.17773ZM4.86226 9.17273H8.69308V11.1713H4.86226V9.17273ZM10.6082 15.1685H4.86226V13.1699H10.6082V15.1685ZM14.439 11.1713H10.6082V9.17273H14.439V11.1713ZM16.3542 7.17413H6.77776V5.17572H16.3542V7.17413Z" fill="#BDBDBD"/>
</g>
<defs>
<clipPath id="clip0">
<rect width="23" height="24" fill="white" transform="translate(0.0727539 0.810791)"/>
</clipPath>
</defs>
</svg>
