<svg width="189" height="189" viewBox="0 0 189 189" fill="none" xmlns="http://www.w3.org/2000/svg">
<g filter="url(#filter0_d)">
<path d="M47.9316 50.0381C47.9316 45.9077 51.28 42.5593 55.4104 42.5593H96.3921C100.523 42.5593 103.871 45.9077 103.871 50.0381V91.0198C103.871 95.1502 100.523 98.4986 96.3921 98.4986H55.4104C51.28 98.4986 47.9316 95.1502 47.9316 91.0198V50.0381Z" fill="#2DBF78"/>
</g>
<path d="M67.003 81.6271C69.5339 83.6629 72.6838 84.7738 75.9316 84.7758C79.1792 84.7884 82.3312 83.6773 84.8532 81.6308C85.4236 81.1708 85.958 80.6678 86.4516 80.1262C88.3668 78.0188 89.6052 75.3848 90.0064 72.5654C90.4075 69.7459 89.953 66.871 88.7017 64.3129C87.4503 61.7548 85.4598 59.6315 82.988 58.2179C80.5161 56.8044 77.6769 56.1658 74.838 56.3849C71.9991 56.604 69.2914 57.6706 67.0656 59.4467C64.8398 61.2227 63.1985 63.6263 62.3543 66.3461C61.5101 69.0659 61.5019 71.9766 62.3307 74.7011C63.1596 77.4256 64.7873 79.8385 67.003 81.6271H67.003ZM75.9313 61.2937C76.8069 61.2937 77.6628 61.5534 78.3909 62.0399C79.119 62.5265 79.6864 63.2181 80.0215 64.0272C80.3566 64.8363 80.4443 65.7267 80.2734 66.5856C80.1026 67.4446 79.681 68.2336 79.0618 68.8529C78.4426 69.4722 77.6538 69.8939 76.795 70.0648C75.9362 70.2356 75.046 70.1479 74.237 69.8128C73.428 69.4776 72.7366 68.9101 72.2501 68.1819C71.7636 67.4537 71.504 66.5976 71.504 65.7218C71.504 64.5474 71.9704 63.4211 72.8007 62.5906C73.631 61.7602 74.7571 61.2937 75.9313 61.2937ZM75.9316 72.6237C82.3296 72.6237 85.1511 74.996 85.6691 78.1081C85.4722 78.3611 85.2672 78.609 85.0496 78.8478C84.6213 79.3174 84.1577 79.7537 83.663 80.1528C81.4707 81.9171 78.7413 82.8787 75.9274 82.878C73.1136 82.8773 70.3846 81.9144 68.1932 80.1491C67.7005 79.7513 67.2392 79.3161 66.8134 78.8475C66.5957 78.609 66.3908 78.3615 66.194 78.1088C66.7117 74.9964 69.5331 72.6237 75.9316 72.6237H75.9316Z" fill="url(#paint0_linear)"/>
<defs>
<filter id="filter0_d" x="0.684839" y="0.0372047" width="188.23" height="188.23" filterUnits="userSpaceOnUse" color-interpolation-filters="sRGB">
<feFlood flood-opacity="0" result="BackgroundImageFix"/>
<feColorMatrix in="SourceAlpha" type="matrix" values="0 0 0 0 0 0 0 0 0 0 0 0 0 0 0 0 0 0 127 0"/>
<feOffset dx="18.8987" dy="23.6234"/>
<feGaussianBlur stdDeviation="33.0728"/>
<feColorMatrix type="matrix" values="0 0 0 0 0.892101 0 0 0 0 0.943117 0 0 0 0 0.995833 0 0 0 0.7 0"/>
<feBlend mode="normal" in2="BackgroundImageFix" result="effect1_dropShadow"/>
<feBlend mode="normal" in="SourceGraphic" in2="effect1_dropShadow" result="shape"/>
</filter>
<linearGradient id="paint0_linear" x1="75.9316" y1="56.3428" x2="75.9316" y2="84.7759" gradientUnits="userSpaceOnUse">
<stop stop-color="white"/>
<stop offset="1" stop-color="white" stop-opacity="0.8"/>
</linearGradient>
</defs>
</svg>
