<svg height="512" viewBox="0 0 512 512" width="512" xmlns="http://www.w3.org/2000/svg"><g id="Flat"><path d="m242.084 488a58.4 58.4 0 0 0 56.792-44.8l29.5-123.2h-74.1a58.4 58.4 0 0 0 -56.811 44.872l-12.191 51.2a58.4 58.4 0 0 0 56.81 71.928zm-25.684-64.513 12.191-51.2a26.31 26.31 0 0 1 25.684-20.287h33.538l-20.056 83.75a26.4 26.4 0 0 1 -51.357-12.263z" fill="#2e4f78"/><path d="m296.8 288 71.349-264a71.3 71.3 0 0 1 53.57 87.417l-45.57 176.583h-40l-7.767 32h-40.233s8-32 8.651-32z" fill="#a8bf28"/><path d="m486.385 416.075-12.191-51.2a58.4 58.4 0 0 0 -56.81-44.875h-74.106l29.5 123.2a58.4 58.4 0 0 0 56.797 44.8 58.4 58.4 0 0 0 56.81-71.925zm-36.094 29.889a26.4 26.4 0 0 1 -46.391-10.214l-20.054-83.75h33.538a26.31 26.31 0 0 1 25.681 20.284l12.19 51.2a26.247 26.247 0 0 1 -4.964 22.48z" fill="#375e8d"/><path d="m374.862 288-71.352-264a71.3 71.3 0 0 0 -53.57 87.417l45.57 176.583h40l7.768 32h40.232s-8-32-8.648-32z" fill="#bbcf35"/><circle cx="327.51" cy="248" fill="#d1e54a" r="16"/><path d="m176 232 31.721-56h-111.721l32 56a88 88 0 0 0 -88 88v120l-12.906 19.359a18.426 18.426 0 0 0 -3.094 10.219 18.422 18.422 0 0 0 18.422 18.422h219.156a18.422 18.422 0 0 0 18.422-18.422 18.426 18.426 0 0 0 -3.094-10.219l-9.812-14.718a18.426 18.426 0 0 1 -3.094-10.219v-114.422a88 88 0 0 0 -88-88z" fill="#86b63b"/><path d="m67.154 326.885v32h16v-32a47.631 47.631 0 0 1 14.446-34.285l-11.2-11.433a63.511 63.511 0 0 0 -19.246 45.718z" fill="#92bf4a"/><path d="m118.409 264.16a63.553 63.553 0 0 0 -18.3 6.77l7.784 13.978a47.605 47.605 0 0 1 13.7-5.068z" fill="#92bf4a"/><path d="m160 352v-32a16.019 16.019 0 0 1 16 16h16a32.036 32.036 0 0 0 -32-32v-16h-16v16a32 32 0 0 0 0 64v32a16.019 16.019 0 0 1 -16-16h-16a32.036 32.036 0 0 0 32 32v16h16v-16a32 32 0 0 0 0-64zm-32-16a16.019 16.019 0 0 1 16-16v32a16.019 16.019 0 0 1 -16-16zm32 64v-32a16 16 0 0 1 0 32z" fill="#6c992a"/></g></svg>