<svg id="Capa_1" enable-background="new 0 0 501 501" height="512" viewBox="0 0 501 501" width="512" xmlns="http://www.w3.org/2000/svg"><g><path d="m489.999 251.094c-.035 14.814-1.385 29.32-3.94 43.406-.209 1.153-4.501 2.292-4.726 3.439-.867 4.417-1.853 8.792-2.953 13.121-.292 1.146 3.484 2.299 3.176 3.439-3.985 14.765-9.316 28.979-15.852 42.5-.705 1.459-5.991 2.312-6.724 3.754-2.153 4.236-4.426 8.402-6.814 12.492-.617 1.057 3.324 2.707 2.692 3.754-34.874 57.731-92.898 99.909-161.211 113.67-6.825-6.696-16.004-10.448-25.566-10.448h-108.433c-93.227-34.65-159.648-124.429-159.648-229.721 0-51.286 15.758-98.891 42.696-138.238.292-.427 2.46.272 2.755-.153 3.198-4.608 6.55-9.102 10.049-13.473.339-.423-1.196-1.97-.854-2.391 44.919-55.362 113.504-90.745 190.353-90.745 135.209 0 245.321 110.386 245 245.594z" fill="#453d83"/><path d="m271 357h194.704c-3.312 6.85-6.933 13.523-10.845 20h-183.859c-5.523 0-10-4.477-10-10s4.477-10 10-10zm72-62.5c-5.523 0-10 4.477-10 10s4.477 10 10 10h138.556c1.771-6.562 3.276-13.232 4.503-20zm20.648-160c0 55.228-44.772 100-100 100s-100-44.772-100-100 44.772-100 100-100 100 44.772 100 100zm-274.648 60c5.523 0 10-4.477 10-10s-4.477-10-10-10-10 4.477-10 10 4.477 10 10 10zm0-80c5.523 0 10-4.477 10-10s-4.477-10-10-10-10 4.477-10 10 4.477 10 10 10zm40 80c5.523 0 10-4.477 10-10s-4.477-10-10-10-10 4.477-10 10 4.477 10 10 10zm-40-40c5.523 0 10-4.477 10-10s-4.477-10-10-10-10 4.477-10 10 4.477 10 10 10zm-40-40c5.523 0 10-4.477 10-10 0-3.428-1.725-6.452-4.354-8.254-4.194 5.169-8.181 10.512-11.95 16.016 1.72 1.399 3.914 2.238 6.304 2.238zm0 40c5.523 0 10-4.477 10-10s-4.477-10-10-10-10 4.477-10 10 4.477 10 10 10zm0 40c5.523 0 10-4.477 10-10s-4.477-10-10-10-10 4.477-10 10 4.477 10 10 10zm80-40c5.523 0 10-4.477 10-10s-4.477-10-10-10-10 4.477-10 10 4.477 10 10 10zm0-60c-5.523 0-10 4.477-10 10s4.477 10 10 10 10-4.477 10-10-4.477-10-10-10z" fill="#5f55af"/><path d="m313.648 134.5c0 27.614-22.386 50-50 50s-50-22.386-50-50 22.386-50 50-50 50 22.386 50 50zm115.352 147.5c-5.523 0-10 4.477-10 10v25c0 5.523 4.477 10 10 10s10-4.477 10-10v-25c0-5.523-4.477-10-10-10zm-60 62.5c-5.523 0-10 4.477-10 10v25c0 5.523 4.477 10 10 10s10-4.477 10-10v-25c0-5.523-4.477-10-10-10z" fill="#76b6fa"/><path d="m382.404 241.819-26.967 48.912c-5.044 9.149-9.031 18.842-11.885 28.892-6.448 22.71-18.629 43.386-35.361 60.039-2.599 2.586-4.349 4.346-4.473 4.513-6.611 15.551-10.069 32.351-10.069 49.418v57.076c-15.723 3.168-31.992 4.83-48.648 4.83-30.017 0-58.774-5.399-85.352-15.277v-40.737c0-22.893-6.222-45.355-18-64.986-11.778-19.63-18-42.093-18-64.986v-65.013l120-10v-100c0-11.288 9.351-20.391 20.729-19.987 10.838.385 19.271 9.622 19.271 20.466v162.237c0 3.356 1.601 6.511 4.31 8.492 5.119 3.745 12.364 2.142 15.426-3.412l34.334-62.275c8.004-14.517 26.267-19.792 40.78-11.774 4.822 2.665 6.565 8.747 3.905 13.572z" fill="#ffbeaa"/><path d="m164.332 364.223c13.573 24.146 20.329 51.527 19.545 79.216l-1.248 44.051c-7.82-2.052-15.487-4.482-22.981-7.267v-40.737c0-22.893-6.222-45.355-18-64.986-11.778-19.63-18-42.093-18-64.986v-65.014l22.339-1.862-1.2 42.369c-.784 27.689 5.972 55.07 19.545 79.216zm112.168-49.723c-42.733 0-77.5 34.767-77.5 77.5 0 4.142 3.358 7.5 7.5 7.5s7.5-3.358 7.5-7.5c0-34.462 28.038-62.5 62.5-62.5 4.142 0 7.5-3.358 7.5-7.5s-3.358-7.5-7.5-7.5z" fill="#faa68e"/><path d="m243.648 234.5v80c0 11.046-8.954 20-20 20s-20-8.954-20-20v-20c0 11.046-8.954 20-20 20s-20-8.954-20-20v-20c0 11.046-8.954 20-20 20s-20-8.954-20-20v-40c0-11.046 8.954-20 20-20s20 8.954 20 20c0-11.046 8.954-20 20-20s20 8.954 20 20c0-11.046 8.954-20 20-20s20 8.954 20 20z" fill="#ffcdbe"/><path d="m223.648 334.5c-11.046 0-20-8.954-20-20v-80c0-11.046 8.954-20 20-20 3.643 0 7.058.974 10 2.676-5.978 3.458-10 9.921-10 17.324zm-40-100c0-7.403 4.022-13.866 10-17.324-2.942-1.702-6.357-2.676-10-2.676-11.046 0-20 8.954-20 20v60c0 11.046 8.954 20 20 20zm-40 53.5v-53.5c0-7.403 4.022-13.866 10-17.324-2.942-1.702-6.357-2.676-10-2.676-11.046 0-20 8.954-20 20v40c0 11.046 8.954 20 20 20 .359 0 .716-.01 1.071-.028-.694-2.03-1.071-4.207-1.071-6.472z" fill="#ffbeaa"/><path d="m153.648 274.5v10c0 5.523-4.477 10-10 10s-10-4.477-10-10v-10c0-5.523 4.477-10 10-10s10 4.477 10 10zm30 10c-5.523 0-10 4.477-10 10v10c0 5.523 4.477 10 10 10s10-4.477 10-10v-10c0-5.523-4.477-10-10-10zm40 20c-5.523 0-10 4.477-10 10v10c0 5.523 4.477 10 10 10s10-4.477 10-10v-10c0-5.523-4.477-10-10-10z" fill="#ffeee5"/><path d="m283.648 134.5c0 11.046-8.954 20-20 20s-20-8.954-20-20 8.954-20 20-20 20 8.954 20 20z" fill="#e9f3fe"/><path d="m501 114.5c0 5.523-4.477 10-10 10h-148c-5.523 0-10-4.477-10-10s4.477-10 10-10h148c5.523 0 10 4.477 10 10zm-88 30h-70c-5.523 0-10 4.477-10 10s4.477 10 10 10h70c5.523 0 10-4.477 10-10s-4.477-10-10-10z" fill="#a7d0fc"/></g></svg>