<?xml version="1.0" encoding="utf-8"?>
<!-- Generator: Adobe Illustrator 23.0.5, SVG Export Plug-In . SVG Version: 6.00 Build 0)  -->
<svg version="1.1" id="Capa_1" xmlns="http://www.w3.org/2000/svg" xmlns:xlink="http://www.w3.org/1999/xlink" x="0px" y="0px"
	 viewBox="0 0 512 512" style="enable-background:new 0 0 512 512;" xml:space="preserve">
<style type="text/css">
	.st0{fill:#8690A6;}
	.st1{fill:#EEFAFF;}
	.st2{fill:#77C043;}
	.st3{fill:#EE225E;}
</style>
<g>
	<g>
		<path class="st0" d="M10,302h120v200H10V302z"/>
		<path class="st0" d="M382,302h120v200H382V302z"/>
		<path class="st1" d="M422,422h40v40h-40V422z"/>
		<path class="st1" d="M422,342h40v40h-40V342z"/>
		<path class="st2" d="M416,10l-40,40l40,40H256V10H416z"/>
		<path class="st0" d="M256,136c-62.5,0-113.8,47.8-119.5,108.8h239C369.8,183.8,318.5,136,256,136L256,136z"/>
		<path class="st0" d="M276,302h66v160h-66V302z"/>
		<path class="st0" d="M170,302h66v160h-66V302z"/>
		<g>
			<path class="st1" d="M422,302v-46c-15.7-3.8-150-36.2-166-40c-15.9,3.8-150.3,36.2-166,40v46h40v160H90v40h332v-40h-40V302H422z
				 M170,462V302h66v160H170z M342,462h-66V302h66V462z"/>
			<path class="st1" d="M50,422h40v40H50V422z"/>
			<path class="st1" d="M50,342h40v40H50V342z"/>
		</g>
	</g>
	<g>
		<path d="M502,292h-70v-36c0-4.6-3.2-8.6-7.7-9.7l-39.8-9.6C375.7,177.2,326.7,131,266,126.4V100h150c4,0,7.7-2.4,9.2-6.2
			c1.5-3.7,0.7-8-2.2-10.9L390.1,50l32.9-32.9c2.9-2.9,3.7-7.2,2.2-10.9C423.7,2.4,420,0,416,0H256c-5.5,0-10,4.5-10,10v116.4
			c-60.7,4.6-109.7,50.8-118.6,110.3l-39.8,9.6c-4.5,1.1-7.7,5.1-7.7,9.7v36H10c-5.5,0-10,4.5-10,10v200c0,5.5,4.5,10,10,10h201
			c5.5,0,10-4.5,10-10s-4.5-10-10-10c-19.6,0-98.2,0-111,0v-20h312v20H301c-5.5,0-10,4.5-10,10s4.5,10,10,10h201c5.5,0,10-4.5,10-10
			V302C512,296.5,507.5,292,502,292z M266,20h125.9l-22.9,22.9c-3.9,3.9-3.9,10.2,0,14.1L391.9,80H266L266,20z M256,146
			c52.3,0,96.2,35.9,107.3,85.6l-105-25.3c-1.5-0.4-3.1-0.4-4.7,0l-104.9,25.3C159.8,181.9,203.7,146,256,146L256,146z M100,263.9
			c20.8-5,142.4-34.3,156-37.6l156,37.6V292H100V263.9z M160,312v140h-20V312H160z M180,312h46v140h-46V312z M246,312h20v140h-20
			V312z M286,312h46v140h-46V312z M352,312h20v140h-20V312z M20,492V312h100v140h-20v-30c0-5.5-4.5-10-10-10H50c-5.5,0-10,4.5-10,10
			v40c0,5.5,4.5,10,10,10h30v20H20z M80,452H60v-20h20V452z M492,492h-60v-20h30c5.5,0,10-4.5,10-10v-40c0-5.5-4.5-10-10-10h-40
			c-5.5,0-10,4.5-10,10v30h-20V312h100V492z M432,452v-20h20v20H432z"/>
		<path d="M412,342v40c0,5.5,4.5,10,10,10h40c5.5,0,10-4.5,10-10v-40c0-5.5-4.5-10-10-10h-40C416.5,332,412,336.5,412,342z M432,352
			h20v20h-20V352z"/>
		<path d="M50,392h40c5.5,0,10-4.5,10-10v-40c0-5.5-4.5-10-10-10H50c-5.5,0-10,4.5-10,10v40C40,387.5,44.5,392,50,392z M60,352h20
			v20H60V352z"/>
		<circle cx="256" cy="502" r="10"/>
	</g>
</g>
<circle class="st3" cx="324.1" cy="50" r="20.1"/>
</svg>
