<svg width="24" height="25" viewBox="0 0 24 25" fill="none" xmlns="http://www.w3.org/2000/svg">
<g clip-path="url(#clip0)">
<path d="M21.8547 16.5096C19.8829 15.2114 17.6253 14.4992 15.2922 14.366C15.8316 14.6294 16.3656 14.9077 16.8719 15.241C18.0918 16.043 18.8498 17.4954 18.8498 19.0306V23.3109H23.1623V19.0306C23.1623 18.0067 22.6612 17.0406 21.8547 16.5096Z" fill="#BDBDBD"/>
<path d="M16.1045 16.5095C11.7344 13.6326 5.83912 13.6326 1.47045 16.5095C0.663281 17.0398 0.162109 18.0059 0.162109 19.0305V23.3108H17.4121V19.0305C17.4121 18.0059 16.9109 17.0398 16.1045 16.5095Z" fill="#BDBDBD"/>
<path d="M13.0916 12.5624C13.5562 12.7091 14.0358 12.8109 14.5374 12.8109C17.3113 12.8109 19.5686 10.4554 19.5686 7.56085C19.5686 4.66631 17.3113 2.31079 14.5374 2.31079C14.0358 2.31079 13.5562 2.41251 13.0916 2.55928C14.41 3.79579 15.2561 5.56955 15.2561 7.5608C15.2561 9.55206 14.41 11.3258 13.0916 12.5624Z" fill="#BDBDBD"/>
<path d="M12.3448 3.84848C14.3096 5.89876 14.3096 9.22283 12.3448 11.2731C10.3799 13.3234 7.19434 13.3234 5.2295 11.2731C3.26465 9.22283 3.26465 5.89876 5.2295 3.84848C7.19434 1.7982 10.3799 1.79825 12.3448 3.84848Z" fill="#BDBDBD"/>
</g>
<defs>
<clipPath id="clip0">
<rect width="23" height="24" fill="white" transform="translate(0.162109 0.810791)"/>
</clipPath>
</defs>
</svg>
