<svg width="24" height="22" viewBox="0 0 24 22" fill="none" xmlns="http://www.w3.org/2000/svg">
<path d="M23.0135 1.28602C23.2904 0.95856 23.4288 0.794828 23.4517 0.659958C23.4863 0.45581 23.3915 0.251459 23.2133 0.146053C23.0955 0.076416 22.8811 0.076416 22.4522 0.076416H1.62053C1.19167 0.076416 0.977236 0.076416 0.859495 0.146053C0.681274 0.251459 0.586461 0.45581 0.621058 0.659958C0.643913 0.794828 0.782376 0.95856 1.0593 1.28602L9.4626 11.2229C9.51744 11.2878 9.54485 11.3202 9.566 11.3557C9.59781 11.4091 9.61938 11.468 9.62959 11.5294C9.63638 11.5702 9.63638 11.6126 9.63638 11.6975V18.8222C9.63638 18.9626 9.63638 19.0328 9.6532 19.096C9.67855 19.1912 9.73144 19.2768 9.80525 19.342C9.85426 19.3854 9.91707 19.4168 10.0427 19.4796L13.3727 21.1446C13.6721 21.2943 13.8218 21.3691 13.9436 21.3673C14.1278 21.3647 14.2956 21.261 14.3803 21.0974C14.4364 20.9893 14.4364 20.8219 14.4364 20.4872V11.6975C14.4364 11.6126 14.4364 11.5702 14.4432 11.5294C14.4534 11.468 14.4749 11.4091 14.5068 11.3557C14.5279 11.3202 14.5553 11.2878 14.6102 11.2229L23.0135 1.28602Z" fill="#828282"/>
</svg>
