<svg id="Layer_1" enable-background="new 0 0 512.12 512.12" height="512" viewBox="0 0 512.12 512.12" width="512" xmlns="http://www.w3.org/2000/svg"><g><g><g><g><path d="m422.334 191.119c8.544-9.092 20.152-13.702 34.502-13.702 2.031 0 3.976.824 5.389 2.283 1.412 1.459 2.173 3.429 2.107 5.459l-3.909 121.053c-.1 3.087-2.082 5.797-4.993 6.828l-38.387 13.59c-.814.288-1.66.43-2.502.43-1.464 0-2.915-.428-4.163-1.261-1.966-1.312-3.199-3.474-3.327-5.834-.264-4.88-.575-9.885-.89-14.96-2.639-42.507-5.63-90.688 16.173-113.886z" fill="#ffe6c7"/><path d="m270.568 505.19c.3 3.91 3.56 6.93 7.48 6.93h91.289c3.82 0 7.03-2.87 7.45-6.67 2.06-18.49 1.01-38.35.38-46.98 75.489-53.94 132.419-117.64 132.999-118.29 1.32-1.49 2-3.44 1.88-5.43-5.87-97.15-5.87-97.15-.01-186.709.14-2.07-.59-4.11-2.01-5.63-1.42-1.51-3.4-2.38-5.47-2.38-1.05 0-2.09.01-3.11.04h-.01c-28.57.73-44.02 11.74-51.42 36.4-6.96 23.22-7.09 59.67-7.09 114.5l-20.91 19.11c-12.89-7.76-25.46-8.23-40.07-2.16-20.21 8.4-43.85 29.18-83.019 63.61-7.96 7-16.19 14.23-25.24 22.11-1.44 1.25-2.35 3-2.54 4.9-.199 1.999-4.919 49.659-.579 106.649z" fill="#ffe6c7"/><g fill="#ffd5b0"><path d="m270.568 505.19c.3 3.91 3.56 6.93 7.48 6.93h26.1c-4.78-41.25-2.91-91.27-2.91-91.27 145.022-151.874 120.646-71.303 133.098-82.771 11.362-10.464-12.319-27.999-12.319-27.999-12.89-7.76-25.46-8.23-40.07-2.16-20.21 8.4-43.85 29.18-83.019 63.61-7.96 7-16.19 14.23-25.24 22.11-1.44 1.25-2.35 3-2.54 4.9-.2 2-4.92 49.66-.58 106.65z"/><path d="m422.017 310.081c51.16 0 49.319-44.557 49.319-75.26 0-92.832 20.651-93.339 30.101-94.749-28.57.73-44.02 11.74-51.42 36.4-6.96 23.22-7.09 59.67-7.09 114.5z"/></g></g><g><path d="m89.786 191.119c-8.544-9.092-20.152-13.702-34.502-13.702-2.031 0-3.976.824-5.389 2.283-1.412 1.459-2.173 3.429-2.107 5.459l3.909 121.053c.1 3.087 2.082 5.797 4.993 6.828l38.387 13.59c.814.288 1.66.43 2.502.43 1.464 0 2.915-.428 4.163-1.261 1.966-1.312 3.199-3.474 3.327-5.834.264-4.88.575-9.885.89-14.96 2.639-42.507 5.63-90.688-16.173-113.886z" fill="#ffe6c7"/><path d="m241.552 505.19c-.3 3.91-3.56 6.93-7.48 6.93h-91.289c-3.82 0-7.03-2.87-7.45-6.67-2.06-18.49-1.01-38.35-.38-46.98-75.49-53.94-132.419-117.639-132.999-118.289-1.32-1.49-2-3.44-1.88-5.43 5.87-97.15 5.87-97.15.01-186.709-.14-2.07.59-4.11 2.01-5.63 1.42-1.51 3.4-2.38 5.47-2.38 1.05 0 2.09.01 3.11.04h.01c28.57.73 44.02 11.74 51.42 36.4 6.96 23.22 7.09 59.67 7.09 114.5l20.91 19.11c12.89-7.76 25.46-8.23 40.07-2.16 20.21 8.4 43.85 29.18 83.019 63.61 7.96 7 16.19 14.23 25.24 22.11 1.44 1.25 2.35 3 2.54 4.9.199 1.998 4.919 49.658.579 106.648z" fill="#ffe6c7"/><g fill="#ffd5b0"><path d="m241.552 505.19c-.3 3.91-3.56 6.93-7.48 6.93h-26.1c4.78-41.25 2.91-91.27 2.91-91.27-145.022-151.873-120.646-71.303-133.098-82.771-11.362-10.464 12.319-27.999 12.319-27.999 12.89-7.76 25.46-8.23 40.07-2.16 20.21 8.4 43.85 29.18 83.019 63.61 7.96 7 16.19 14.23 25.24 22.11 1.44 1.25 2.35 3 2.54 4.9.2 2 4.92 49.66.58 106.65z"/><path d="m90.103 310.081c-51.16 0-49.319-44.557-49.319-75.26 0-92.832-20.651-93.339-30.101-94.749 28.57.73 44.02 11.74 51.42 36.4 6.96 23.22 7.09 59.67 7.09 114.5z"/></g></g></g></g><path d="m401.365 145.3c0 80.11-65.19 145.29-145.32 145.29-4.21 0-8.38-.18-12.5-.54-74.3-6.35-132.82-68.85-132.82-144.75 0-75.91 58.52-138.41 132.82-144.76 4.12-.36 8.29-.54 12.5-.54 80.13 0 145.32 65.18 145.32 145.3z" fill="#fff18d"/><path d="m401.365 145.3c0 80.11-65.19 145.29-145.32 145.29-4.21 0-8.38-.18-12.5-.54 74.3-6.35 132.82-68.85 132.82-144.75 0-75.91-58.52-138.41-132.82-144.76 4.12-.36 8.29-.54 12.5-.54 80.13 0 145.32 65.18 145.32 145.3z" fill="#ffd366"/><path d="m359.895 145.3c0 57.25-46.59 103.83-103.85 103.83-4.75 0-9.42-.32-14-.95-50.67-6.85-89.85-50.38-89.85-102.88 0-52.51 39.18-96.03 89.85-102.88 4.58-.63 9.25-.95 14-.95 57.26 0 103.85 46.57 103.85 103.83z" fill="#ffd366"/><path d="m359.895 145.3c0 57.25-46.59 103.83-103.85 103.83-4.75 0-9.42-.32-14-.95 50.67-6.85 89.85-50.38 89.85-102.88 0-52.51-39.18-96.03-89.85-102.88 4.58-.63 9.25-.95 14-.95 57.26 0 103.85 46.57 103.85 103.83z" fill="#ffaf5f"/><path d="m256.043 137.796c-8.219 0-14.906-6.685-14.906-14.902s6.687-14.902 14.906-14.902 14.906 6.685 14.906 14.902c0 4.142 3.358 7.5 7.5 7.5s7.5-3.358 7.5-7.5c0-13.899-9.534-25.613-22.406-28.949v-10.254c0-4.142-3.358-7.5-7.5-7.5s-7.5 3.358-7.5 7.5v10.254c-12.872 3.336-22.406 15.05-22.406 28.949 0 16.488 13.416 29.902 29.906 29.902 8.219 0 14.906 6.685 14.906 14.901s-6.687 14.902-14.906 14.902-14.906-6.685-14.906-14.902c0-4.142-3.358-7.5-7.5-7.5s-7.5 3.358-7.5 7.5c0 13.899 9.534 25.613 22.406 28.949v10.254c0 4.142 3.358 7.5 7.5 7.5s7.5-3.358 7.5-7.5v-10.254c12.872-3.336 22.406-15.05 22.406-28.949 0-16.488-13.416-29.901-29.906-29.901z" fill="#fff"/></g></svg>