<svg id="Layer_3" enable-background="new 0 0 64 64" height="512" viewBox="0 0 64 64" width="512" xmlns="http://www.w3.org/2000/svg"><g><path d="m47 34v-4l-3.248-.433c-.31-1.507-.908-2.908-1.726-4.151l1.994-2.608-2.828-2.828-2.608 1.994c-1.243-.818-2.644-1.415-4.151-1.726l-.433-3.248h-4l-.433 3.248c-1.507.31-2.908.908-4.151 1.726l-2.608-1.994-2.828 2.828 1.994 2.608c-.818 1.243-1.415 2.644-1.726 4.151l-3.248.433v4l3.248.433c.31 1.507.908 2.908 1.726 4.151l-1.994 2.608 2.828 2.828 2.608-1.994c1.243.818 2.644 1.415 4.151 1.726l.433 3.248h4l.433-3.248c1.507-.31 2.908-.908 4.151-1.726l2.608 1.994 2.828-2.828-1.994-2.608c.818-1.243 1.415-2.644 1.726-4.151zm-15 6c-4.418 0-8-3.582-8-8s3.582-8 8-8 8 3.582 8 8-3.582 8-8 8z" fill="#2862be"/><g fill="#f6b940"><path d="m54 28h8v8h-8z"/><path d="m54 48h8v8h-8z"/><path d="m54 8h8v8h-8z"/><path d="m2 28h8v8h-8z" transform="matrix(-1 0 0 -1 12 64)"/><path d="m2 48h8v8h-8z" transform="matrix(-1 0 0 -1 12 104)"/><path d="m2 8h8v8h-8z" transform="matrix(-1 0 0 -1 12 24)"/></g><g fill="#61668c"><path d="m54 13v-2h-4c-.552 0-1 .448-1 1v19h-2v2h2v19c0 .552.448 1 1 1h4v-2h-3v-18h3v-2h-3v-18z"/><path d="m15 12c0-.552-.448-1-1-1h-4v2h3v18h-3v2h3v18h-3v2h4c.552 0 1-.448 1-1v-19h2v-2h-2z"/></g></g></svg>