<svg width="189" height="189" viewBox="0 0 189 189" fill="none" xmlns="http://www.w3.org/2000/svg">
<g filter="url(#filter0_d)">
<path d="M47.9316 50.7071C47.9316 46.5815 51.2761 43.2371 55.4017 43.2371H96.4872C100.613 43.2371 103.957 46.5815 103.957 50.7071V91.7926C103.957 95.9182 100.613 99.2627 96.4872 99.2627H55.4017C51.2761 99.2627 47.9316 95.9182 47.9316 91.7926V50.7071Z" fill="#2EB4B4"/>
</g>
<path d="M92.3056 84.5908C89.5639 82.7734 87.9263 72.9827 87.9263 58.3997C87.9263 58.0796 87.6666 57.8198 87.3465 57.8198H65.3108C64.9907 57.8198 64.731 58.0796 64.731 58.3997C64.731 67.3299 65.3677 82.7328 69.6298 85.558C69.7249 85.6207 69.8351 85.6543 69.9499 85.6543H91.9855C92.2419 85.6543 92.4668 85.4861 92.5411 85.2414C92.6141 84.9967 92.519 84.7323 92.3056 84.5908ZM68.2103 61.879C68.2103 61.5589 68.4701 61.2991 68.7902 61.2991H75.7488C76.0689 61.2991 76.3287 61.5589 76.3287 61.879C76.3287 62.1991 76.0689 62.4589 75.7488 62.4589H68.7902C68.4701 62.4589 68.2103 62.1991 68.2103 61.879ZM68.7902 66.5181C68.7902 66.198 69.0499 65.9382 69.37 65.9382H83.8672C84.1873 65.9382 84.447 66.198 84.447 66.5181C84.447 66.8382 84.1873 67.098 83.8672 67.098H69.37C69.0499 67.098 68.7902 66.8382 68.7902 66.5181ZM69.37 69.9974C69.37 69.6773 69.6298 69.4175 69.9499 69.4175H84.447C84.7671 69.4175 85.0269 69.6773 85.0269 69.9974C85.0269 70.3175 84.7671 70.5773 84.447 70.5773H69.9499C69.6298 70.5773 69.37 70.3175 69.37 69.9974ZM79.2281 81.0152H72.2695C71.9494 81.0152 71.6896 80.7554 71.6896 80.4353C71.6896 80.1152 71.9494 79.8554 72.2695 79.8554H79.2281C79.5482 79.8554 79.808 80.1152 79.808 80.4353C79.808 80.7554 79.5482 81.0152 79.2281 81.0152ZM85.0269 74.0566H70.5298C70.2097 74.0566 69.9499 73.7968 69.9499 73.4767C69.9499 73.1566 70.2097 72.8968 70.5298 72.8968H85.0269C85.347 72.8968 85.6068 73.1566 85.6068 73.4767C85.6068 73.7968 85.347 74.0566 85.0269 74.0566Z" fill="#FCFEFD"/>
<defs>
<filter id="filter0_d" x="0.739408" y="0.764051" width="188.164" height="188.164" filterUnits="userSpaceOnUse" color-interpolation-filters="sRGB">
<feFlood flood-opacity="0" result="BackgroundImageFix"/>
<feColorMatrix in="SourceAlpha" type="matrix" values="0 0 0 0 0 0 0 0 0 0 0 0 0 0 0 0 0 0 127 0"/>
<feOffset dx="18.8769" dy="23.5961"/>
<feGaussianBlur stdDeviation="33.0346"/>
<feColorMatrix type="matrix" values="0 0 0 0 0.892101 0 0 0 0 0.943117 0 0 0 0 0.995833 0 0 0 0.7 0"/>
<feBlend mode="normal" in2="BackgroundImageFix" result="effect1_dropShadow"/>
<feBlend mode="normal" in="SourceGraphic" in2="effect1_dropShadow" result="shape"/>
</filter>
</defs>
</svg>
