<svg height="512" viewBox="0 0 512 512" width="512" xmlns="http://www.w3.org/2000/svg"><g id="Flat"><path d="m380 104a59.959 59.959 0 0 0 -59.8 56h-224.2a24 24 0 0 0 0 48v40h32v-40h32v40h32v-40h128.2a59.966 59.966 0 0 0 119.8-4v-40a60 60 0 0 0 -60-60zm21.64 85.23a25.015 25.015 0 0 1 6.36 16.59c0 14.46-12.54 26.18-28 26.18s-28-11.72-28-26.18a25.015 25.015 0 0 1 6.36-16.59 7.9 7.9 0 0 0 0-10.46 25.015 25.015 0 0 1 -6.36-16.59c0-14.46 12.54-26.18 28-26.18s28 11.72 28 26.18a25.015 25.015 0 0 1 -6.36 16.59 7.9 7.9 0 0 0 0 10.46z" fill="#ffb531"/><path d="m380 104a59.959 59.959 0 0 0 -59.8 56h-17.6a425.662 425.662 0 0 1 -51.08 48h68.68a59.966 59.966 0 0 0 119.8-4v-40a60 60 0 0 0 -60-60zm21.64 85.23a25.015 25.015 0 0 1 6.36 16.59c0 14.46-12.54 26.18-28 26.18s-28-11.72-28-26.18a25.015 25.015 0 0 1 6.36-16.59 7.9 7.9 0 0 0 0-10.46 25.015 25.015 0 0 1 -6.36-16.59c0-14.46 12.54-26.18 28-26.18s28 11.72 28 26.18a25.015 25.015 0 0 1 -6.36 16.59 7.9 7.9 0 0 0 0 10.46z" fill="#ffa912"/><path d="m424 270.79v145.21h-228.24a79.7 79.7 0 0 1 -28-5.07 77.893 77.893 0 0 1 -9.25-4.13l-117.49-61.81a31.855 31.855 0 0 1 29.67-56.38l105.31 55.42h28a28 28 0 0 1 0-56h92l7.69-6.73a102.258 102.258 0 0 1 120.31-10.51z" fill="#fec9a3"/><path d="m424 297.81v118.19h-228.24a79.7 79.7 0 0 1 -28-5.07c80.73-12.61 180.7-41.9 256.24-113.12z" fill="#fec093"/><path d="m424 272.034h72v143.966h-72z" fill="#348fd9"/><path d="m424 368h72v48h-72z" fill="#3086cd"/><path d="m296 352.031h-92a8 8 0 1 1 0-16h92a8 8 0 0 1 0 16z" fill="#f7a468"/><circle cx="472" cy="368" fill="#2a71ad" r="16"/></g></svg>