<?xml version="1.0" encoding="utf-8"?>
<!-- Generator: Adobe Illustrator 23.0.5, SVG Export Plug-In . SVG Version: 6.00 Build 0)  -->
<svg version="1.1" id="Capa_1" xmlns="http://www.w3.org/2000/svg" xmlns:xlink="http://www.w3.org/1999/xlink" x="0px" y="0px"
	 viewBox="0 0 512 512" style="enable-background:new 0 0 512 512;" xml:space="preserve">
<style type="text/css">
	.st0{fill:#F04C5B;}
</style>
<path class="st0" d="M149.3,306.3c19.2-6.1,32.2-16.6,38.8-31.4c3.6-7.8,5.1-15.8,4.6-24h-44.8v-75.1h81.4V236
	c0,28-6.8,50.4-20.4,67.4c-13.6,16.9-33.5,27.9-59.5,32.8L149.3,306.3L149.3,306.3z M284.1,306.3c19.7-5.9,32.9-16.8,39.4-32.6
	c2.7-6.3,4-13.9,4-22.8h-44.8v-75.1h81.4V236c0,27.2-6.6,49.4-19.9,66.7c-13.3,17.2-33.3,28.4-60,33.5V306.3L284.1,306.3z"/>
</svg>
