<?xml version="1.0" encoding="utf-8"?>
<!-- Generator: Adobe Illustrator 23.0.5, SVG Export Plug-In . SVG Version: 6.00 Build 0)  -->
<svg version="1.1" id="Capa_1" xmlns="http://www.w3.org/2000/svg" xmlns:xlink="http://www.w3.org/1999/xlink" x="0px" y="0px"
	 viewBox="0 0 512 512" style="enable-background:new 0 0 512 512;" xml:space="preserve">
<style type="text/css">
	.st0{fill:#3EB549;}
</style>
<path class="st0" d="M147.6,276c0-28.6,6.8-51.1,20.4-67.7c13.6-16.6,33.5-27.4,59.5-32.6v29.7c-19.4,6.1-32.5,16.6-39.1,31.4
	c-3.4,7.8-4.9,15.9-4.3,24.3H229v75.1h-81.4V276z M283,276c0-28.9,7-51.6,21-68s33.6-27.1,59-32.3v29.7c-19.2,5.9-32.2,16.6-38.8,32
	c-3.8,8.2-5.3,16.1-4.6,23.7h44.8v75.1H283V276L283,276z"/>
</svg>
