<?xml version="1.0" encoding="iso-8859-1"?>
<!-- Generator: Adobe Illustrator 19.0.0, SVG Export Plug-In . SVG Version: 6.00 Build 0)  -->
<svg version="1.1" id="Capa_1" xmlns="http://www.w3.org/2000/svg" xmlns:xlink="http://www.w3.org/1999/xlink" x="0px" y="0px"
	 viewBox="0 0 504.123 504.123" style="enable-background:new 0 0 504.123 504.123;" xml:space="preserve">
<circle style="fill:#FCBD5E;" cx="252.062" cy="252.062" r="252.062"/>
<path style="fill:#FFFFFF;" d="M206.375,7.877H35.446c-14.966,0-27.569,11.815-27.569,27.569v263.877
	c0,14.966,12.603,27.569,27.569,27.569h170.929c14.966,0,27.569-12.603,27.569-27.569V35.446
	C233.945,19.692,221.342,7.877,206.375,7.877z"/>
<path style="fill:#183651;" d="M206.375,333.982H35.446C15.754,333.982,0,318.228,0,298.535V35.446C0,15.754,15.754,0,35.446,0
	h170.929c19.692,0,35.446,15.754,35.446,35.446v263.877C241.822,318.228,226.068,333.982,206.375,333.982z M35.446,15.754
	c-11.028,0-19.692,8.665-19.692,19.692v263.877c0,11.028,8.665,19.692,19.692,19.692h170.929c11.028,0,19.692-8.665,19.692-19.692
	V35.446c0-11.028-8.665-19.692-19.692-19.692H35.446z"/>
<path style="fill:#E1E6E8;" d="M233.945,58.289V35.446c0-14.966-12.603-27.569-27.569-27.569H35.446
	c-14.966,0-27.569,11.815-27.569,27.569v23.631"/>
<path style="fill:#183651;" d="M233.945,66.166c-4.726,0-7.877-3.151-7.877-7.877V35.446c0-11.028-8.665-19.692-19.692-19.692
	H35.446c-11.028,0-19.692,8.665-19.692,19.692v23.631c0,4.726-3.151,7.877-7.877,7.877S0,63.803,0,59.077V35.446
	C0,15.754,15.754,0,35.446,0h170.929c19.692,0,35.446,15.754,35.446,35.446v23.631C241.822,63.015,237.883,66.166,233.945,66.166z"
	/>
<path style="fill:#E1E6E8;" d="M7.877,261.514v37.809c0,14.966,12.603,27.569,27.569,27.569h170.929
	c14.966,0,27.569-12.603,27.569-27.569v-37.809"/>
<path style="fill:#183651;" d="M206.375,333.982H35.446C15.754,333.982,0,318.228,0,298.535v-37.809
	c0-4.726,3.151-7.877,7.877-7.877s7.877,3.151,7.877,7.877v37.809c0,11.028,8.665,19.692,19.692,19.692h170.929
	c11.028,0,19.692-8.665,19.692-19.692v-37.809c0-4.726,3.151-7.877,7.877-7.877c4.726,0,7.877,3.151,7.877,7.877v37.809
	C241.822,318.228,226.068,333.982,206.375,333.982z"/>
<g>
	<circle style="fill:#CFD0D1;" cx="120.517" cy="290.658" r="14.178"/>
	<path style="fill:#CFD0D1;" d="M147.298,31.508H93.735c-3.151,0-4.726,2.363-4.726,4.726c0,3.151,2.363,4.726,4.726,4.726h53.563
		c3.151,0,4.726-2.363,4.726-4.726C152.812,33.871,150.449,31.508,147.298,31.508z"/>
</g>
<path style="fill:#F05F50;" d="M181.957,165.415v-15.754l-14.966-2.363c-1.575-5.514-3.151-10.24-6.302-14.178l8.665-12.603
	l-11.028-11.028l-12.603,8.665c-4.726-3.151-9.452-4.726-14.178-6.302l-2.363-14.966h-15.754l-2.363,14.966
	c-5.514,1.575-10.24,3.151-14.178,6.302l-12.603-8.665l-11.028,11.028l8.665,12.603c-3.151,4.726-4.726,9.452-6.302,14.178
	l-14.966,2.363v15.754l14.966,2.363c1.575,5.514,3.151,10.24,6.302,14.178l-8.665,12.603l11.028,11.028l12.603-8.665
	c4.726,3.151,9.452,4.726,14.178,6.302l2.363,14.966h15.754l2.363-14.966c5.514-1.575,10.24-3.151,14.178-6.302l12.603,8.665
	l11.028-11.028l-8.665-12.603c3.151-4.726,4.726-9.452,6.302-14.178L181.957,165.415z M120.517,177.231
	c-11.028,0-19.692-8.665-19.692-19.692c0-11.028,8.665-19.692,19.692-19.692s19.692,8.665,19.692,19.692
	C140.209,168.566,131.545,177.231,120.517,177.231z"/>
<path style="fill:#FFFFFF;" d="M474.191,220.554H215.04c-12.603,0-22.055,10.24-22.055,22.055v190.622
	c0,12.603,10.24,22.055,22.055,22.055h259.151c12.603,0,22.055-10.24,22.055-22.055V242.609
	C496.246,230.794,486.006,220.554,474.191,220.554z"/>
<path style="fill:#183651;" d="M474.191,463.951H215.04c-16.542,0-29.932-13.391-29.932-29.932V242.609
	c0-16.542,13.391-29.932,29.932-29.932h259.151c16.542,0,29.932,13.391,29.932,29.932v190.622
	C504.123,450.56,490.732,463.951,474.191,463.951z M215.04,228.431c-7.877,0-14.178,6.302-14.178,14.178v190.622
	c0,7.877,6.302,14.178,14.178,14.178h259.151c7.877,0,14.178-6.302,14.178-14.178V242.609c0-7.877-6.302-14.178-14.178-14.178
	H215.04z"/>
<rect x="224.492" y="252.062" style="fill:#2AA0DA;" width="240.246" height="148.086"/>
<polygon style="fill:#E1E6E8;" points="394.634,496.246 294.597,496.246 307.988,456.074 381.243,456.074 "/>
<g>
	<path style="fill:#183651;" d="M394.634,504.123L394.634,504.123H294.597c-2.363,0-4.726-1.575-6.302-3.151
		c-1.575-2.363-1.575-4.726-0.788-7.089l13.391-40.172c0.788-3.151,3.938-5.514,7.089-5.514h73.255c3.151,0,6.302,2.363,7.089,5.514
		l13.391,38.597c0.788,0.788,0.788,2.363,0.788,3.938C402.511,500.185,399.36,504.123,394.634,504.123z M305.625,488.369h77.982
		l-7.877-24.418h-61.44L305.625,488.369z"/>
	<path style="fill:#183651;" d="M407.237,504.123H281.994c-4.726,0-7.877-3.151-7.877-7.877s3.151-7.877,7.877-7.877h125.243
		c4.726,0,7.877,3.151,7.877,7.877C415.114,500.185,411.175,504.123,407.237,504.123z"/>
</g>
<g>
	<circle style="fill:#CFD0D1;" cx="298.535" cy="423.778" r="11.028"/>
	<circle style="fill:#CFD0D1;" cx="345.009" cy="423.778" r="11.028"/>
	<circle style="fill:#CFD0D1;" cx="390.695" cy="423.778" r="11.028"/>
</g>
<path style="fill:#FFFFFF;" d="M394.634,332.406v-12.603l-12.603-2.363c-0.788-3.938-2.363-8.665-4.726-11.815l7.089-10.24
	l-9.452-9.452l-10.24,7.089c-3.938-2.363-7.877-3.938-11.815-4.726l-2.363-12.603H337.92l-2.363,12.603
	c-3.938,0.788-8.665,2.363-11.815,4.726l-10.24-7.089l-8.665,9.452l7.089,10.24c-2.363,3.938-3.938,7.877-4.726,11.815
	l-12.603,2.363v12.603l12.603,2.363c0.788,3.938,2.363,8.665,4.726,11.815l-7.089,10.24l9.452,9.452l10.24-7.089
	c3.938,2.363,7.877,3.938,11.815,4.726l2.363,12.603h12.603l2.363-12.603c3.938-0.788,8.665-2.363,11.815-4.726l10.24,7.089
	l9.452-9.452l-7.089-10.24c2.363-3.938,3.938-7.877,4.726-11.815L394.634,332.406z M345.009,341.858
	c-8.665,0-15.754-7.089-15.754-15.754c0-8.665,7.089-15.754,15.754-15.754c8.665,0,15.754,7.089,15.754,15.754
	C360.763,334.769,353.674,341.858,345.009,341.858z"/>
<path style="fill:#183651;" d="M452.923,215.828h-15.754v-15.754h15.754V215.828z M452.923,184.32h-15.754v-15.754h15.754V184.32z
	 M452.923,152.812h-15.754v-15.754h15.754V152.812z M437.169,121.305c0-4.726-0.788-8.665-2.363-12.603l14.966-5.514
	c2.363,5.514,3.151,11.815,3.938,18.117H437.169z M427.717,97.674c-3.151-3.151-6.302-6.302-10.24-8.665l7.877-13.391
	c5.514,3.151,10.24,7.089,14.178,11.815L427.717,97.674z M405.662,84.283c-2.363-0.788-4.726-0.788-7.089-0.788h-7.089V67.742h7.089
	c3.151,0,7.089,0,10.24,0.788L405.662,84.283z M375.729,84.283h-15.754V68.529h15.754V84.283z M344.222,84.283h-15.754V68.529
	h15.754V84.283z M312.714,84.283H296.96V68.529h15.754V84.283z M281.206,84.283h-15.754V68.529h15.754V84.283z M249.698,84.283
	h-15.754V68.529h15.754V84.283z"/>
<g>
</g>
<g>
</g>
<g>
</g>
<g>
</g>
<g>
</g>
<g>
</g>
<g>
</g>
<g>
</g>
<g>
</g>
<g>
</g>
<g>
</g>
<g>
</g>
<g>
</g>
<g>
</g>
<g>
</g>
</svg>
