<svg width="1142" height="365" viewBox="0 0 1142 365" fill="none" xmlns="http://www.w3.org/2000/svg">
<path d="M581.05 133.987H545.936L572.371 91.8492L581.05 55.5189H581.313L589.993 91.8492L616.428 133.987H581.313" stroke="#424155" stroke-width="2" stroke-miterlimit="10"/>
<path d="M740.84 324.147H657.066V363.854H740.84V324.147Z" fill="url(#paint0_linear)" stroke="#424155" stroke-width="2" stroke-miterlimit="10"/>
<path d="M962.572 324.147H878.798V363.854H962.572V324.147Z" fill="url(#paint1_linear)" stroke="#424155" stroke-width="2" stroke-miterlimit="10"/>
<path d="M1130.51 345.891H1009.92V363.854H1130.51V345.891Z" fill="url(#paint2_linear)" stroke="#424155" stroke-width="2" stroke-miterlimit="10"/>
<path d="M614.061 133.852H551.723V344.001H614.061V133.852Z" fill="url(#paint3_linear)"/>
<path d="M729.529 145.062H665.614V306.32H729.529V145.062Z" fill="url(#paint4_linear)"/>
<path d="M954.68 144.927H887.477V309.831H954.68V144.927Z" fill="url(#paint5_linear)"/>
<path d="M619.19 149.519H545.016V221.909H619.19V149.519Z" fill="url(#paint6_linear)"/>
<path d="M597.095 79.5591H565.269V91.5791H597.095V79.5591Z" stroke="#424155" stroke-width="2" stroke-miterlimit="10"/>
<path opacity="0.31" d="M272.125 131.016L263.577 37.8265C263.446 36.8811 262.657 22.5651 261.736 22.5651C260.815 22.5651 260.026 36.8811 259.895 37.8265L251.346 131.016L236.88 197.329L216.89 242.303L191.771 280.119C147.319 254.593 116.545 205.432 116.545 149.384C116.545 66.9988 181.644 0.14563 261.867 0.14563C342.091 0.14563 407.19 66.9988 407.19 149.384C407.19 205.432 376.547 254.593 332.096 280.119L307.108 243.383L287.644 199.085L272.125 131.016Z" fill="#F3001E"/>
<path d="M613.14 133.987H551.723V351.699H613.14V133.987Z" stroke="#424155" stroke-width="2" stroke-miterlimit="10"/>
<path d="M620.636 351.699H541.597V363.854H620.636V351.699Z" stroke="#424155" stroke-width="2" stroke-miterlimit="10"/>
<path d="M732.818 145.062H664.957V307.805H732.818V145.062Z" stroke="#424155" stroke-width="2" stroke-miterlimit="10"/>
<path d="M657.066 145.062H740.84" stroke="#424155" stroke-width="2" stroke-miterlimit="10"/>
<path d="M657.066 180.177H740.84" stroke="#424155" stroke-width="2" stroke-miterlimit="10"/>
<path d="M657.066 220.964H740.84" stroke="#424155" stroke-width="2" stroke-miterlimit="10"/>
<path d="M657.066 260.4H740.84" stroke="#424155" stroke-width="2" stroke-miterlimit="10"/>
<path d="M545.805 281.604H616.559" stroke="#424155" stroke-width="2" stroke-miterlimit="10"/>
<path d="M545.805 344.001H616.559" stroke="#424155" stroke-width="2" stroke-miterlimit="10"/>
<path d="M724.532 260.4H673.242V307.805H724.532V260.4Z" stroke="#424155" stroke-width="2" stroke-miterlimit="10"/>
<path d="M673.242 269.044H724.532" stroke="#424155" stroke-width="2" stroke-miterlimit="10"/>
<path d="M665.614 227.312H732.16" stroke="#424155" stroke-width="2" stroke-miterlimit="10"/>
<path d="M665.614 213.266H732.16" stroke="#424155" stroke-width="2" stroke-miterlimit="10"/>
<path d="M665.614 187.875H732.16" stroke="#424155" stroke-width="2" stroke-miterlimit="10"/>
<path d="M740.84 307.805H657.066V324.147H740.84V307.805Z" stroke="#424155" stroke-width="2" stroke-miterlimit="10"/>
<path d="M581.182 205.972C592.658 205.972 601.961 196.419 601.961 184.633C601.961 172.848 592.658 163.294 581.182 163.294C569.706 163.294 560.403 172.848 560.403 184.633C560.403 196.419 569.706 205.972 581.182 205.972Z" stroke="#424155" stroke-width="2" stroke-miterlimit="10"/>
<path d="M579.867 177.205V185.579H588.547" stroke="#424155" stroke-width="2" stroke-miterlimit="10"/>
<path d="M684.158 125.883H662.721V145.061H684.158V125.883Z" stroke="#424155" stroke-width="2" stroke-miterlimit="10"/>
<path d="M662.458 125.884L667.981 120.617L673.373 115.349L678.897 120.617L684.42 125.884" stroke="#424155" stroke-width="2" stroke-miterlimit="10"/>
<path d="M673.373 105.895V115.349" stroke="#424155" stroke-width="2" stroke-miterlimit="10" stroke-linecap="round"/>
<path d="M698.361 75.9126V85.5016" stroke="#424155" stroke-width="2" stroke-miterlimit="10" stroke-linecap="round"/>
<path d="M581.182 46.605V56.059" stroke="#424155" stroke-width="2" stroke-miterlimit="10" stroke-linecap="round"/>
<path d="M733.869 125.883H712.432V145.061H733.869V125.883Z" stroke="#424155" stroke-width="2" stroke-miterlimit="10"/>
<path d="M712.169 125.884L717.693 120.617L723.217 115.349L728.609 120.617L734.132 125.884" stroke="#424155" stroke-width="2" stroke-miterlimit="10"/>
<path d="M723.216 105.895V115.349" stroke="#424155" stroke-width="2" stroke-miterlimit="10" stroke-linecap="round"/>
<path d="M684.421 145.062L684.552 123.858L694.679 86.582H702.175L712.17 123.858L712.433 145.062" stroke="#424155" stroke-width="2" stroke-miterlimit="10"/>
<path d="M688.103 110.622H708.882" stroke="#424155" stroke-width="2" stroke-miterlimit="10" stroke-linecap="round"/>
<path d="M698.886 117.645V132.772" stroke="#424155" stroke-width="2" stroke-miterlimit="10" stroke-linecap="round"/>
<path d="M954.68 145.062H886.819V307.805H954.68V145.062Z" stroke="#424155" stroke-width="2" stroke-miterlimit="10"/>
<path d="M878.798 145.062H962.704" stroke="#424155" stroke-width="2" stroke-miterlimit="10"/>
<path d="M878.798 180.177H962.704" stroke="#424155" stroke-width="2" stroke-miterlimit="10"/>
<path d="M878.798 220.964H962.704" stroke="#424155" stroke-width="2" stroke-miterlimit="10"/>
<path d="M878.798 260.4H962.704" stroke="#424155" stroke-width="2" stroke-miterlimit="10"/>
<path d="M946.395 260.4H895.105V307.805H946.395V260.4Z" stroke="#424155" stroke-width="2" stroke-miterlimit="10"/>
<path d="M895.105 269.044H946.395" stroke="#424155" stroke-width="2" stroke-miterlimit="10"/>
<path d="M887.477 227.312H954.023" stroke="#424155" stroke-width="2" stroke-miterlimit="10"/>
<path d="M887.477 213.266H954.023" stroke="#424155" stroke-width="2" stroke-miterlimit="10"/>
<path d="M887.477 187.875H954.023" stroke="#424155" stroke-width="2" stroke-miterlimit="10"/>
<path d="M962.572 307.805H878.798V324.147H962.572V307.805Z" stroke="#424155" stroke-width="2" stroke-miterlimit="10"/>
<path d="M906.021 125.883H884.584V145.061H906.021V125.883Z" stroke="#424155" stroke-width="2" stroke-miterlimit="10"/>
<path d="M884.321 125.884L889.844 120.617L895.236 115.349L900.76 120.617L906.152 125.884" stroke="#424155" stroke-width="2" stroke-miterlimit="10"/>
<path d="M895.237 105.895V115.349" stroke="#424155" stroke-width="2" stroke-miterlimit="10" stroke-linecap="round"/>
<path d="M920.224 75.9126V85.5016" stroke="#424155" stroke-width="2" stroke-miterlimit="10" stroke-linecap="round"/>
<path d="M955.733 125.883H934.296V145.061H955.733V125.883Z" stroke="#424155" stroke-width="2" stroke-miterlimit="10"/>
<path d="M934.033 125.884L939.556 120.617L944.948 115.349L950.472 120.617L955.864 125.884" stroke="#424155" stroke-width="2" stroke-miterlimit="10"/>
<path d="M944.949 105.895V115.349" stroke="#424155" stroke-width="2" stroke-miterlimit="10" stroke-linecap="round"/>
<path d="M906.152 145.062L906.415 123.858L916.41 86.582H924.038L934.033 123.858L934.296 145.062" stroke="#424155" stroke-width="2" stroke-miterlimit="10"/>
<path d="M909.965 110.622H930.613" stroke="#424155" stroke-width="2" stroke-miterlimit="10" stroke-linecap="round"/>
<path d="M920.751 117.645V132.772" stroke="#424155" stroke-width="2" stroke-miterlimit="10" stroke-linecap="round"/>
<path d="M662.72 180.177C662.72 225.826 643.125 266.073 613.14 289.978" stroke="#424155" stroke-width="2" stroke-miterlimit="10"/>
<path d="M664.956 214.211C659.17 250.272 640.758 280.524 614.061 300.243" stroke="#424155" stroke-width="2" stroke-miterlimit="10"/>
<path d="M656.934 315.909H613.14V325.498H656.934V315.909Z" stroke="#424155" stroke-width="2" stroke-miterlimit="10"/>
<path d="M656.934 325.498H613.14V332.521H656.934V325.498Z" stroke="#424155" stroke-width="2" stroke-miterlimit="10"/>
<path d="M627.212 288.898V315.909" stroke="#424155" stroke-width="2" stroke-miterlimit="10"/>
<path d="M650.227 258.645V315.909" stroke="#424155" stroke-width="2" stroke-miterlimit="10"/>
<path d="M956.917 180.177C956.917 225.826 982.167 275.662 1016.62 297.946" stroke="#424155" stroke-width="2" stroke-miterlimit="10"/>
<path d="M954.681 214.211C960.468 250.272 978.88 280.524 1005.58 300.243C1005.58 300.243 1014.52 307.536 1016.62 308.751" stroke="#424155" stroke-width="2" stroke-miterlimit="10"/>
<path d="M962.66 325.596L1018.29 325.596L1018.29 316.007L962.66 316.007L962.66 325.596Z" stroke="#424155" stroke-width="2" stroke-miterlimit="10"/>
<path d="M962.66 332.649L1018.29 332.649L1018.29 325.626L962.66 325.626L962.66 332.649Z" stroke="#424155" stroke-width="2" stroke-miterlimit="10"/>
<path d="M992.426 288.898V315.909" stroke="#424155" stroke-width="2" stroke-miterlimit="10"/>
<path d="M969.411 258.645V315.909" stroke="#424155" stroke-width="2" stroke-miterlimit="10"/>
<path d="M543.438 148.168H619.19" stroke="#424155" stroke-width="2" stroke-miterlimit="10"/>
<path d="M543.438 221.909H619.19" stroke="#424155" stroke-width="2" stroke-miterlimit="10"/>
<path d="M544.095 142.496V226.366" stroke="#424155" stroke-width="2" stroke-miterlimit="10"/>
<path d="M619.189 142.496V226.366" stroke="#424155" stroke-width="2" stroke-miterlimit="10"/>
<path d="M740.84 315.909H878.798" stroke="#424155" stroke-width="2" stroke-miterlimit="10"/>
<path d="M740.84 363.854H878.798" stroke="#424155" stroke-width="2" stroke-miterlimit="10"/>
<path d="M621.951 363.854H657.591" stroke="#424155" stroke-width="2" stroke-miterlimit="10"/>
<path d="M962.703 363.854H1141.69" stroke="#424155" stroke-width="2" stroke-miterlimit="10"/>
<path d="M740.84 324.147H878.798" stroke="#424155" stroke-width="2" stroke-miterlimit="10"/>
<path d="M740.84 331.035H878.798" stroke="#424155" stroke-width="2" stroke-miterlimit="10"/>
<path d="M732.817 187.875H886.82" stroke="#424155" stroke-width="2" stroke-miterlimit="10"/>
<path d="M732.817 169.912H886.82" stroke="#424155" stroke-width="2" stroke-miterlimit="10"/>
<path d="M732.817 194.763H886.82" stroke="#424155" stroke-width="2" stroke-miterlimit="10"/>
<path d="M1019.25 337.112C1017.68 319.69 1016.76 301.052 1016.76 281.739C1016.76 182.472 1039.9 101.843 1068.44 101.843C1096.98 101.843 1120.12 182.337 1120.12 281.739C1120.12 301.052 1119.2 319.69 1117.63 337.112" fill="url(#paint7_linear)"/>
<path d="M1019.25 337.112C1017.68 319.69 1016.76 301.052 1016.76 281.739C1016.76 182.472 1039.9 101.843 1068.44 101.843C1096.98 101.843 1120.12 182.337 1120.12 281.739C1120.12 301.052 1119.2 319.69 1117.63 337.112" stroke="#424155" stroke-width="2" stroke-miterlimit="10"/>
<path d="M1042.93 125.209H1094.08" stroke="#424155" stroke-width="2" stroke-miterlimit="10"/>
<path d="M1039.38 132.772H1097.37" stroke="#424155" stroke-width="2" stroke-miterlimit="10"/>
<path d="M1115.78 209.889C1078.7 198.679 1050.82 161.674 1047.79 116.7" stroke="#424155" stroke-width="2" stroke-miterlimit="10"/>
<path d="M1120.12 271.475C1073.44 256.349 1038.32 206.107 1034.51 144.927" stroke="#424155" stroke-width="2" stroke-miterlimit="10"/>
<path d="M1118.02 329.955C1072.25 313.883 1034.25 264.587 1022.67 203.271" stroke="#424155" stroke-width="2" stroke-miterlimit="10"/>
<path d="M1074.62 132.772C1064.76 146.818 1049.11 156.136 1031.22 156.947" stroke="#424155" stroke-width="2" stroke-miterlimit="10"/>
<path d="M1100.66 141.28C1100.66 178.556 1073.83 206.783 1040.69 206.783C1034.12 206.783 1027.67 205.567 1021.75 203.271" stroke="#424155" stroke-width="2" stroke-miterlimit="10"/>
<path d="M1112.1 185.309C1098.82 219.883 1065.94 244.329 1027.67 244.329C1024.38 244.329 1021.23 244.194 1017.94 243.788" stroke="#424155" stroke-width="2" stroke-miterlimit="10"/>
<path d="M1118.02 230.958C1109.74 275.797 1068.44 309.832 1018.6 309.832" stroke="#424155" stroke-width="2" stroke-miterlimit="10"/>
<path d="M1120.12 286.602C1113.81 308.751 1096.72 328.064 1076.46 336.978" stroke="#424155" stroke-width="2" stroke-miterlimit="10"/>
<path d="M326.177 363.854L272.125 133.447" stroke="#424155" stroke-width="2" stroke-miterlimit="10"/>
<path d="M286.723 195.708L357.215 363.854" stroke="#424155" stroke-width="2" stroke-miterlimit="10"/>
<path d="M307.108 244.058L387.331 363.853" stroke="#424155" stroke-width="2" stroke-miterlimit="10"/>
<path d="M376.416 326.173L452.956 363.854" stroke="#424155" stroke-width="2" stroke-miterlimit="10"/>
<path d="M342.616 297.136L420.341 363.854" stroke="#424155" stroke-width="2" stroke-miterlimit="10"/>
<path d="M424.549 349.943L490.569 363.854" stroke="#424155" stroke-width="2" stroke-miterlimit="10"/>
<path d="M227.016 363.854L251.477 133.447L260.026 40.2574C260.157 39.312 260.946 24.996 261.867 24.996C262.788 24.996 263.577 39.312 263.708 40.2574L272.257 133.447L296.718 363.854" stroke="#424155" stroke-width="2" stroke-miterlimit="10"/>
<path d="M197.425 363.854L251.477 133.447" stroke="#424155" stroke-width="2" stroke-miterlimit="10"/>
<path d="M236.879 195.708L166.388 363.853" stroke="#424155" stroke-width="2" stroke-miterlimit="10"/>
<path d="M216.627 244.058L136.403 363.854" stroke="#424155" stroke-width="2" stroke-miterlimit="10"/>
<path d="M147.319 326.173L70.7778 363.854" stroke="#424155" stroke-width="2" stroke-miterlimit="10"/>
<path d="M181.118 297.136L103.262 363.854" stroke="#424155" stroke-width="2" stroke-miterlimit="10"/>
<path d="M99.0533 349.943L33.0334 363.854" stroke="#424155" stroke-width="2" stroke-miterlimit="10"/>
<path d="M261.867 159.918L270.021 210.834L278.175 261.751H261.867H245.428L253.582 210.834L261.867 159.918Z" stroke="#424155" stroke-width="2" stroke-miterlimit="10"/>
<path d="M261.867 336.032L253.582 299.027L245.428 262.156H261.867H278.175L270.021 299.027L261.867 336.032Z" stroke="#424155" stroke-width="2" stroke-miterlimit="10"/>
<path d="M261.867 339.004L278.833 351.429L295.929 363.854H261.867H227.674L244.771 351.429L261.867 339.004Z" stroke="#424155" stroke-width="2" stroke-miterlimit="10"/>
<path d="M0.0234375 363.854H509.638" stroke="#424155" stroke-width="2" stroke-miterlimit="10"/>
<path d="M759.384 169.912V187.875" stroke="#424155" stroke-width="2" stroke-miterlimit="10"/>
<path d="M783.844 169.912V187.875" stroke="#424155" stroke-width="2" stroke-miterlimit="10"/>
<path d="M808.305 169.912V187.875" stroke="#424155" stroke-width="2" stroke-miterlimit="10"/>
<path d="M832.636 169.912V187.875" stroke="#424155" stroke-width="2" stroke-miterlimit="10"/>
<path d="M857.097 169.912V187.875" stroke="#424155" stroke-width="2" stroke-miterlimit="10"/>
<path d="M1126.7 337.113H1013.73V346.027H1126.7V337.113Z" stroke="#424155" stroke-width="2" stroke-miterlimit="10"/>
<defs>
<linearGradient id="paint0_linear" x1="698.925" y1="303.587" x2="698.925" y2="368.085" gradientUnits="userSpaceOnUse">
<stop stop-color="#CFD1D2"/>
<stop offset="1" stop-color="white"/>
</linearGradient>
<linearGradient id="paint1_linear" x1="920.743" y1="303.587" x2="920.743" y2="368.085" gradientUnits="userSpaceOnUse">
<stop stop-color="#CFD1D2"/>
<stop offset="1" stop-color="white"/>
</linearGradient>
<linearGradient id="paint2_linear" x1="1070.19" y1="303.587" x2="1070.19" y2="368.085" gradientUnits="userSpaceOnUse">
<stop stop-color="#CFD1D2"/>
<stop offset="1" stop-color="white"/>
</linearGradient>
<linearGradient id="paint3_linear" x1="551.772" y1="238.949" x2="614.045" y2="238.949" gradientUnits="userSpaceOnUse">
<stop stop-color="#CFD1D2"/>
<stop offset="1" stop-color="white"/>
</linearGradient>
<linearGradient id="paint4_linear" x1="665.665" y1="225.656" x2="729.55" y2="225.656" gradientUnits="userSpaceOnUse">
<stop stop-color="#CFD1D2"/>
<stop offset="1" stop-color="white"/>
</linearGradient>
<linearGradient id="paint5_linear" x1="887.482" y1="227.342" x2="954.681" y2="227.342" gradientUnits="userSpaceOnUse">
<stop stop-color="#CFD1D2"/>
<stop offset="1" stop-color="white"/>
</linearGradient>
<linearGradient id="paint6_linear" x1="544.97" y1="185.733" x2="619.141" y2="185.733" gradientUnits="userSpaceOnUse">
<stop stop-color="#FBB040"/>
<stop offset="1" stop-color="#F8CCE0"/>
</linearGradient>
<linearGradient id="paint7_linear" x1="1012.92" y1="219.416" x2="1120.31" y2="219.416" gradientUnits="userSpaceOnUse">
<stop stop-color="#CFD1D2"/>
<stop offset="1" stop-color="white"/>
</linearGradient>
</defs>
</svg>
